<svg xmlns="http://www.w3.org/2000/svg" width="1280" height="720" viewBox="0 0 1280 720">
  <defs>
    <linearGradient id="bg" x1="0%" y1="0%" x2="100%" y2="100%">
      <stop offset="0%" style="stop-color:#0f172a"/>
      <stop offset="100%" style="stop-color:#1e293b"/>
    </linearGradient>
    <linearGradient id="accent" x1="0%" y1="0%" x2="100%" y2="0%">
      <stop offset="0%" style="stop-color:#6366f1"/>
      <stop offset="100%" style="stop-color:#8b5cf6"/>
    </linearGradient>
    <linearGradient id="green" x1="0%" y1="0%" x2="100%" y2="0%">
      <stop offset="0%" style="stop-color:#10b981"/>
      <stop offset="100%" style="stop-color:#059669"/>
    </linearGradient>
    <linearGradient id="red" x1="0%" y1="0%" x2="100%" y2="0%">
      <stop offset="0%" style="stop-color:#f43f5e"/>
      <stop offset="100%" style="stop-color:#e11d48"/>
    </linearGradient>
  </defs>

  <!-- Background -->
  <rect width="1280" height="720" fill="url(#bg)"/>

  <!-- Status bar -->
  <rect width="1280" height="40" fill="#0f172a"/>
  <text x="40" y="26" font-family="Arial" font-size="13" fill="#94a3b8">09:41</text>
  <text x="1200" y="26" font-family="Arial" font-size="13" fill="#94a3b8">●●●</text>

  <!-- Top header -->
  <rect y="40" width="1280" height="70" fill="#1e293b"/>
  <text x="40" y="82" font-family="Arial" font-size="13" fill="#94a3b8">Olá, Lucas 👋</text>
  <text x="40" y="102" font-family="Arial" font-size="22" font-weight="bold" fill="#ffffff">Dashboard</text>
  <text x="1200" y="85" font-family="Arial" font-size="28" fill="#6366f1" text-anchor="middle">⚙</text>

  <!-- Balance card -->
  <rect x="40" y="130" width="560" height="160" rx="16" fill="url(#accent)"/>
  <text x="70" y="165" font-family="Arial" font-size="14" fill="#c7d2fe">Saldo disponível</text>
  <text x="70" y="215" font-family="Arial" font-size="42" font-weight="bold" fill="#ffffff">R$ 3.240,00</text>
  <text x="70" y="250" font-family="Arial" font-size="13" fill="#c7d2fe">Março 2026</text>
  <circle cx="530" cy="210" r="80" fill="#ffffff" opacity="0.05"/>
  <circle cx="570" cy="170" r="60" fill="#ffffff" opacity="0.05"/>

  <!-- Income card -->
  <rect x="620" y="130" width="300" height="74" rx="16" fill="#1e293b"/>
  <rect x="620" y="130" width="4" height="74" rx="2" fill="url(#green)"/>
  <text x="640" y="158" font-family="Arial" font-size="12" fill="#94a3b8">Receita</text>
  <text x="640" y="186" font-family="Arial" font-size="22" font-weight="bold" fill="#10b981">R$ 6.500,00</text>

  <!-- Expense card -->
  <rect x="940" y="130" width="300" height="74" rx="16" fill="#1e293b"/>
  <rect x="940" y="130" width="4" height="74" rx="2" fill="url(#red)"/>
  <text x="960" y="158" font-family="Arial" font-size="12" fill="#94a3b8">Despesas</text>
  <text x="960" y="186" font-family="Arial" font-size="22" font-weight="bold" fill="#f43f5e">R$ 3.260,00</text>

  <!-- Budget card -->
  <rect x="620" y="216" width="300" height="74" rx="16" fill="#1e293b"/>
  <rect x="620" y="216" width="4" height="74" rx="2" fill="url(#accent)"/>
  <text x="640" y="244" font-family="Arial" font-size="12" fill="#94a3b8">Orçamento restante</text>
  <text x="640" y="272" font-family="Arial" font-size="22" font-weight="bold" fill="#a5b4fc">R$ 1.240,00</text>

  <!-- Uber card -->
  <rect x="940" y="216" width="300" height="74" rx="16" fill="#1e293b"/>
  <rect x="940" y="216" width="4" height="74" rx="2" fill="#f59e0b"/>
  <text x="960" y="244" font-family="Arial" font-size="12" fill="#94a3b8">Ganhos Uber</text>
  <text x="960" y="272" font-family="Arial" font-size="22" font-weight="bold" fill="#fbbf24">R$ 1.850,00</text>

  <!-- Section title -->
  <text x="40" y="330" font-family="Arial" font-size="16" font-weight="bold" fill="#ffffff">Últimas despesas</text>

  <!-- Expense items -->
  <!-- Item 1 -->
  <rect x="40" y="345" width="560" height="56" rx="12" fill="#1e293b"/>
  <circle cx="72" cy="373" r="18" fill="#6366f1" opacity="0.2"/>
  <text x="72" y="379" font-family="Arial" font-size="16" fill="#6366f1" text-anchor="middle">🛒</text>
  <text x="102" y="367" font-family="Arial" font-size="14" font-weight="bold" fill="#ffffff">Supermercado</text>
  <text x="102" y="387" font-family="Arial" font-size="12" fill="#64748b">Alimentação · 02 mar</text>
  <text x="575" y="379" font-family="Arial" font-size="15" font-weight="bold" fill="#f43f5e" text-anchor="end">- R$ 320,00</text>

  <!-- Item 2 -->
  <rect x="40" y="410" width="560" height="56" rx="12" fill="#1e293b"/>
  <circle cx="72" cy="438" r="18" fill="#f59e0b" opacity="0.2"/>
  <text x="72" y="444" font-family="Arial" font-size="16" fill="#f59e0b" text-anchor="middle">⛽</text>
  <text x="102" y="432" font-family="Arial" font-size="14" font-weight="bold" fill="#ffffff">Combustível</text>
  <text x="102" y="452" font-family="Arial" font-size="12" fill="#64748b">Transporte · 01 mar</text>
  <text x="575" y="444" font-family="Arial" font-size="15" font-weight="bold" fill="#f43f5e" text-anchor="end">- R$ 180,00</text>

  <!-- Item 3 -->
  <rect x="40" y="475" width="560" height="56" rx="12" fill="#1e293b"/>
  <circle cx="72" cy="503" r="18" fill="#10b981" opacity="0.2"/>
  <text x="72" y="509" font-family="Arial" font-size="16" fill="#10b981" text-anchor="middle">💊</text>
  <text x="102" y="497" font-family="Arial" font-size="14" font-weight="bold" fill="#ffffff">Farmácia</text>
  <text x="102" y="517" font-family="Arial" font-size="12" fill="#64748b">Saúde · 28 fev</text>
  <text x="575" y="509" font-family="Arial" font-size="15" font-weight="bold" fill="#f43f5e" text-anchor="end">- R$ 95,00</text>

  <!-- Item 4 -->
  <rect x="40" y="540" width="560" height="56" rx="12" fill="#1e293b"/>
  <circle cx="72" cy="568" r="18" fill="#8b5cf6" opacity="0.2"/>
  <text x="72" y="574" font-family="Arial" font-size="16" fill="#8b5cf6" text-anchor="middle">🎬</text>
  <text x="102" y="562" font-family="Arial" font-size="14" font-weight="bold" fill="#ffffff">Cinema</text>
  <text x="102" y="582" font-family="Arial" font-size="12" fill="#64748b">Lazer · 27 fev</text>
  <text x="575" y="574" font-family="Arial" font-size="15" font-weight="bold" fill="#f43f5e" text-anchor="end">- R$ 60,00</text>

  <!-- Right: Budget progress -->
  <text x="640" y="330" font-family="Arial" font-size="16" font-weight="bold" fill="#ffffff">Orçamento por categoria</text>

  <!-- Budget bars -->
  <!-- Alimentação -->
  <rect x="640" y="345" width="600" height="56" rx="12" fill="#1e293b"/>
  <text x="665" y="367" font-family="Arial" font-size="13" fill="#ffffff">🛒 Alimentação</text>
  <text x="1215" y="367" font-family="Arial" font-size="13" fill="#94a3b8" text-anchor="end">R$820 / R$1.000</text>
  <rect x="665" y="378" width="550" height="8" rx="4" fill="#334155"/>
  <rect x="665" y="378" width="451" height="8" rx="4" fill="url(#accent)"/>
  <text x="1215" y="392" font-family="Arial" font-size="11" fill="#94a3b8" text-anchor="end">82%</text>

  <!-- Transporte -->
  <rect x="640" y="410" width="600" height="56" rx="12" fill="#1e293b"/>
  <text x="665" y="432" font-family="Arial" font-size="13" fill="#ffffff">⛽ Transporte</text>
  <text x="1215" y="432" font-family="Arial" font-size="13" fill="#94a3b8" text-anchor="end">R$580 / R$800</text>
  <rect x="665" y="443" width="550" height="8" rx="4" fill="#334155"/>
  <rect x="665" y="443" width="399" height="8" rx="4" fill="#f59e0b"/>
  <text x="1215" y="457" font-family="Arial" font-size="11" fill="#94a3b8" text-anchor="end">73%</text>

  <!-- Lazer -->
  <rect x="640" y="475" width="600" height="56" rx="12" fill="#1e293b"/>
  <text x="665" y="497" font-family="Arial" font-size="13" fill="#ffffff">🎬 Lazer</text>
  <text x="1215" y="497" font-family="Arial" font-size="13" fill="#94a3b8" text-anchor="end">R$430 / R$600</text>
  <rect x="665" y="508" width="550" height="8" rx="4" fill="#334155"/>
  <rect x="665" y="508" width="394" height="8" rx="4" fill="#8b5cf6"/>
  <text x="1215" y="522" font-family="Arial" font-size="11" fill="#94a3b8" text-anchor="end">72%</text>

  <!-- Saúde -->
  <rect x="640" y="540" width="600" height="56" rx="12" fill="#1e293b"/>
  <text x="665" y="562" font-family="Arial" font-size="13" fill="#ffffff">💊 Saúde</text>
  <text x="1215" y="562" font-family="Arial" font-size="13" fill="#94a3b8" text-anchor="end">R$310 / R$500</text>
  <rect x="665" y="573" width="550" height="8" rx="4" fill="#334155"/>
  <rect x="665" y="573" width="341" height="8" rx="4" fill="#10b981"/>
  <text x="1215" y="587" font-family="Arial" font-size="11" fill="#94a3b8" text-anchor="end">62%</text>

  <!-- Bottom nav -->
  <rect y="636" width="1280" height="84" fill="#1e293b"/>
  <line x1="0" y1="636" x2="1280" y2="636" stroke="#334155" stroke-width="1"/>
  <text x="128" y="668" font-family="Arial" font-size="22" fill="#6366f1" text-anchor="middle">⊞</text>
  <text x="128" y="688" font-family="Arial" font-size="11" fill="#6366f1" text-anchor="middle">Início</text>
  <text x="384" y="668" font-family="Arial" font-size="22" fill="#475569" text-anchor="middle">📋</text>
  <text x="384" y="688" font-family="Arial" font-size="11" fill="#475569" text-anchor="middle">Despesas</text>
  <text x="640" y="668" font-family="Arial" font-size="22" fill="#475569" text-anchor="middle">📊</text>
  <text x="640" y="688" font-family="Arial" font-size="11" fill="#475569" text-anchor="middle">Orçamento</text>
  <text x="896" y="668" font-family="Arial" font-size="22" fill="#475569" text-anchor="middle">🚗</text>
  <text x="896" y="688" font-family="Arial" font-size="11" fill="#475569" text-anchor="middle">Uber</text>
  <text x="1152" y="668" font-family="Arial" font-size="22" fill="#475569" text-anchor="middle">👤</text>
  <text x="1152" y="688" font-family="Arial" font-size="11" fill="#475569" text-anchor="middle">Perfil</text>
</svg>
