<svg xmlns="http://www.w3.org/2000/svg" width="1280" height="720" viewBox="0 0 1280 720">
  <defs>
    <linearGradient id="bg" x1="0%" y1="0%" x2="100%" y2="100%">
      <stop offset="0%" style="stop-color:#0f172a"/>
      <stop offset="100%" style="stop-color:#1e293b"/>
    </linearGradient>
    <linearGradient id="accent" x1="0%" y1="0%" x2="100%" y2="0%">
      <stop offset="0%" style="stop-color:#6366f1"/>
      <stop offset="100%" style="stop-color:#8b5cf6"/>
    </linearGradient>
  </defs>
  <rect width="1280" height="720" fill="url(#bg)"/>
  <rect width="1280" height="40" fill="#0f172a"/>
  <text x="40" y="26" font-family="Arial" font-size="13" fill="#94a3b8">09:41</text>

  <!-- Header -->
  <rect y="40" width="1280" height="70" fill="#1e293b"/>
  <text x="40" y="90" font-family="Arial" font-size="24" font-weight="bold" fill="#ffffff">Orçamento · Março 2026</text>

  <!-- Donut chart placeholder -->
  <circle cx="220" cy="300" r="140" fill="none" stroke="#1e3a5f" stroke-width="30"/>
  <!-- Segments (approximated) -->
  <circle cx="220" cy="300" r="140" fill="none" stroke="#6366f1" stroke-width="30" stroke-dasharray="527" stroke-dashoffset="0" transform="rotate(-90 220 300)"/>
  <circle cx="220" cy="300" r="140" fill="none" stroke="#f59e0b" stroke-width="30" stroke-dasharray="879" stroke-dashoffset="-527" transform="rotate(-90 220 300)" opacity="0.8"/>
  <circle cx="220" cy="300" r="140" fill="none" stroke="#8b5cf6" stroke-width="30" stroke-dasharray="879" stroke-dashoffset="-703" transform="rotate(-90 220 300)" opacity="0.7"/>
  <circle cx="220" cy="300" r="140" fill="none" stroke="#10b981" stroke-width="30" stroke-dasharray="879" stroke-dashoffset="-791" transform="rotate(-90 220 300)" opacity="0.7"/>
  <text x="220" y="290" font-family="Arial" font-size="13" fill="#94a3b8" text-anchor="middle">Total gasto</text>
  <text x="220" y="316" font-family="Arial" font-size="24" font-weight="bold" fill="#ffffff" text-anchor="middle">R$3.260</text>

  <!-- Legend -->
  <circle cx="400" cy="200" r="8" fill="#6366f1"/>
  <text x="418" y="205" font-family="Arial" font-size="13" fill="#cbd5e1">Alimentação 25%</text>
  <circle cx="400" cy="232" r="8" fill="#f59e0b"/>
  <text x="418" y="237" font-family="Arial" font-size="13" fill="#cbd5e1">Transporte 18%</text>
  <circle cx="400" cy="264" r="8" fill="#8b5cf6"/>
  <text x="418" y="269" font-family="Arial" font-size="13" fill="#cbd5e1">Lazer 13%</text>
  <circle cx="400" cy="296" r="8" fill="#10b981"/>
  <text x="418" y="301" font-family="Arial" font-size="13" fill="#cbd5e1">Saúde 10%</text>
  <circle cx="400" cy="328" r="8" fill="#334155"/>
  <text x="418" y="333" font-family="Arial" font-size="13" fill="#cbd5e1">Outros 34%</text>

  <!-- Budget cards grid (right side) -->
  <!-- Alimentação -->
  <rect x="620" y="130" width="300" height="120" rx="16" fill="#1e293b"/>
  <text x="640" y="158" font-family="Arial" font-size="13" fill="#94a3b8">🛒 Alimentação</text>
  <text x="640" y="188" font-family="Arial" font-size="22" font-weight="bold" fill="#ffffff">R$ 820,00</text>
  <text x="900" y="188" font-family="Arial" font-size="13" fill="#64748b" text-anchor="end">de R$1.000</text>
  <rect x="640" y="202" width="230" height="8" rx="4" fill="#334155"/>
  <rect x="640" y="202" width="189" height="8" rx="4" fill="#6366f1"/>
  <text x="640" y="232" font-family="Arial" font-size="12" fill="#94a3b8">82% utilizado · R$180 restante</text>

  <!-- Transporte -->
  <rect x="940" y="130" width="300" height="120" rx="16" fill="#1e293b"/>
  <text x="960" y="158" font-family="Arial" font-size="13" fill="#94a3b8">⛽ Transporte</text>
  <text x="960" y="188" font-family="Arial" font-size="22" font-weight="bold" fill="#ffffff">R$ 580,00</text>
  <text x="1220" y="188" font-family="Arial" font-size="13" fill="#64748b" text-anchor="end">de R$800</text>
  <rect x="960" y="202" width="230" height="8" rx="4" fill="#334155"/>
  <rect x="960" y="202" width="168" height="8" rx="4" fill="#f59e0b"/>
  <text x="960" y="232" font-family="Arial" font-size="12" fill="#94a3b8">73% utilizado · R$220 restante</text>

  <!-- Lazer -->
  <rect x="620" y="264" width="300" height="120" rx="16" fill="#1e293b"/>
  <text x="640" y="292" font-family="Arial" font-size="13" fill="#94a3b8">🎬 Lazer</text>
  <text x="640" y="322" font-family="Arial" font-size="22" font-weight="bold" fill="#ffffff">R$ 430,00</text>
  <text x="900" y="322" font-family="Arial" font-size="13" fill="#64748b" text-anchor="end">de R$600</text>
  <rect x="640" y="336" width="230" height="8" rx="4" fill="#334155"/>
  <rect x="640" y="336" width="166" height="8" rx="4" fill="#8b5cf6"/>
  <text x="640" y="366" font-family="Arial" font-size="12" fill="#94a3b8">72% utilizado · R$170 restante</text>

  <!-- Saúde -->
  <rect x="940" y="264" width="300" height="120" rx="16" fill="#1e293b"/>
  <text x="960" y="292" font-family="Arial" font-size="13" fill="#94a3b8">💊 Saúde</text>
  <text x="960" y="322" font-family="Arial" font-size="22" font-weight="bold" fill="#ffffff">R$ 310,00</text>
  <text x="1220" y="322" font-family="Arial" font-size="13" fill="#64748b" text-anchor="end">de R$500</text>
  <rect x="960" y="336" width="230" height="8" rx="4" fill="#334155"/>
  <rect x="960" y="336" width="143" height="8" rx="4" fill="#10b981"/>
  <text x="960" y="366" font-family="Arial" font-size="12" fill="#94a3b8">62% utilizado · R$190 restante</text>

  <!-- Casa -->
  <rect x="620" y="398" width="300" height="120" rx="16" fill="#1e293b"/>
  <text x="640" y="426" font-family="Arial" font-size="13" fill="#94a3b8">🏠 Casa</text>
  <text x="640" y="456" font-family="Arial" font-size="22" font-weight="bold" fill="#ffffff">R$ 900,00</text>
  <text x="900" y="456" font-family="Arial" font-size="13" fill="#64748b" text-anchor="end">de R$900</text>
  <rect x="640" y="470" width="230" height="8" rx="4" fill="#334155"/>
  <rect x="640" y="470" width="230" height="8" rx="4" fill="#f43f5e"/>
  <text x="640" y="500" font-family="Arial" font-size="12" fill="#f43f5e">100% utilizado · Limite atingido</text>

  <!-- Educação -->
  <rect x="940" y="398" width="300" height="120" rx="16" fill="#1e293b"/>
  <text x="960" y="426" font-family="Arial" font-size="13" fill="#94a3b8">📚 Educação</text>
  <text x="960" y="456" font-family="Arial" font-size="22" font-weight="bold" fill="#ffffff">R$ 220,00</text>
  <text x="1220" y="456" font-family="Arial" font-size="13" fill="#64748b" text-anchor="end">de R$400</text>
  <rect x="960" y="470" width="230" height="8" rx="4" fill="#334155"/>
  <rect x="960" y="470" width="127" height="8" rx="4" fill="#6366f1" opacity="0.7"/>
  <text x="960" y="500" font-family="Arial" font-size="12" fill="#94a3b8">55% utilizado · R$180 restante</text>

  <!-- Receita total -->
  <rect x="40" y="550" width="560" height="80" rx="16" fill="#1e293b"/>
  <rect x="40" y="550" width="560" height="4" rx="2" fill="url(#accent)"/>
  <text x="60" y="585" font-family="Arial" font-size="14" fill="#94a3b8">Receita total configurada</text>
  <text x="60" y="614" font-family="Arial" font-size="26" font-weight="bold" fill="#10b981">R$ 6.500,00</text>

  <!-- Bottom nav -->
  <rect y="636" width="1280" height="84" fill="#1e293b"/>
  <line x1="0" y1="636" x2="1280" y2="636" stroke="#334155" stroke-width="1"/>
  <text x="128" y="668" font-family="Arial" font-size="22" fill="#475569" text-anchor="middle">⊞</text>
  <text x="128" y="688" font-family="Arial" font-size="11" fill="#475569" text-anchor="middle">Início</text>
  <text x="384" y="668" font-family="Arial" font-size="22" fill="#475569" text-anchor="middle">📋</text>
  <text x="384" y="688" font-family="Arial" font-size="11" fill="#475569" text-anchor="middle">Despesas</text>
  <text x="640" y="668" font-family="Arial" font-size="22" fill="#6366f1" text-anchor="middle">📊</text>
  <text x="640" y="688" font-family="Arial" font-size="11" fill="#6366f1" text-anchor="middle">Orçamento</text>
  <text x="896" y="668" font-family="Arial" font-size="22" fill="#475569" text-anchor="middle">🚗</text>
  <text x="896" y="688" font-family="Arial" font-size="11" fill="#475569" text-anchor="middle">Uber</text>
  <text x="1152" y="668" font-family="Arial" font-size="22" fill="#475569" text-anchor="middle">👤</text>
  <text x="1152" y="688" font-family="Arial" font-size="11" fill="#475569" text-anchor="middle">Perfil</text>
</svg>
